<svg width="22" height="21" viewBox="0 0 22 21" fill="none" xmlns="http://www.w3.org/2000/svg">
<path d="M5.23076 10.4874L10.5091 17.8652C10.5563 17.931 10.6184 17.9846 10.6904 18.0216C10.7624 18.0586 10.8421 18.078 10.923 18.0781H10.9242C11.0055 18.078 11.0855 18.0584 11.1577 18.0211C11.2298 17.9838 11.292 17.9298 11.3391 17.8636L16.5835 10.4858C16.6378 10.4096 16.6699 10.3198 16.6765 10.2264C16.683 10.1331 16.6637 10.0397 16.6206 9.95665C16.5777 9.87346 16.5128 9.80371 16.4329 9.75506C16.3529 9.70641 16.2611 9.68076 16.1676 9.68093H13.6995L13.6997 3.05453C13.6997 2.9876 13.6865 2.92132 13.6609 2.85948C13.6353 2.79764 13.5978 2.74145 13.5504 2.69413C13.5031 2.64681 13.4469 2.60929 13.385 2.5837C13.3232 2.55812 13.2569 2.54498 13.19 2.54503L8.62347 2.54523C8.55651 2.54521 8.4902 2.55838 8.42833 2.584C8.36647 2.60962 8.31026 2.64718 8.26292 2.69453C8.21558 2.74189 8.17804 2.79812 8.15245 2.85999C8.12685 2.92187 8.11371 2.98818 8.11376 3.05514V9.68072H5.64484C5.45441 9.68072 5.27958 9.78809 5.19166 9.95766C5.14871 10.041 5.12963 10.1346 5.13653 10.2281C5.14343 10.3215 5.17604 10.4113 5.23076 10.4874Z" fill="#005CEE"/>
</svg>
