<svg width="22" height="21" viewBox="0 0 22 21" fill="none" xmlns="http://www.w3.org/2000/svg">
<path d="M16.5798 10.1376L11.3014 2.75979C11.2542 2.69404 11.1921 2.64044 11.1201 2.60342C11.0482 2.5664 10.9684 2.54702 10.8875 2.54688H10.8863C10.8051 2.54704 10.725 2.5666 10.6529 2.60391C10.5807 2.64123 10.5185 2.69522 10.4714 2.76141L5.22706 10.1392C5.17278 10.2154 5.1406 10.3052 5.13406 10.3986C5.12751 10.4919 5.14687 10.5853 5.18999 10.6684C5.23282 10.7515 5.29777 10.8213 5.37769 10.8699C5.45761 10.9186 5.54941 10.9442 5.64297 10.9441H8.11108L8.11088 17.5705C8.11085 17.6374 8.12402 17.7037 8.14962 17.7655C8.17523 17.8274 8.21278 17.8836 8.26012 17.9309C8.30746 17.9782 8.36366 18.0157 8.42551 18.0413C8.48736 18.0669 8.55365 18.08 8.62058 18.08L13.1871 18.0798C13.254 18.0798 13.3203 18.0666 13.3822 18.041C13.4441 18.0154 13.5003 17.9778 13.5476 17.9305C13.595 17.8831 13.6325 17.8269 13.6581 17.765C13.6837 17.7031 13.6968 17.6368 13.6968 17.5699V10.9443H16.1657C16.3561 10.9443 16.531 10.8369 16.6189 10.6673C16.6618 10.584 16.6809 10.4904 16.674 10.3969C16.6671 10.3035 16.6345 10.2137 16.5798 10.1376Z" fill="#005CEE"/>
</svg>
