<svg width="20" height="20" viewBox="0 0 20 20" fill="none" xmlns="http://www.w3.org/2000/svg">
<path d="M19.9994 8.53119L20 16.0729C20 18.1614 18.8571 19.8692 17.4148 19.9928L17.247 20H2.75367C1.28957 20 0.0924147 18.3696 0.00574489 16.3121L0.000720558 16.0729L0 8.53119H19.9994ZM16.26 13.5369H13.7573L13.6554 13.5467C13.289 13.6176 13.0065 14.0657 13.0065 14.608C13.0065 15.1502 13.289 15.5983 13.6554 15.6692L13.7573 15.679H16.26L16.3619 15.6692C16.7284 15.5983 17.0108 15.1502 17.0108 14.608C17.0108 14.0657 16.7284 13.6176 16.3619 13.5467L16.26 13.5369ZM17.247 0C18.7111 0 19.9083 1.63041 19.995 3.68791L20 3.92715L19.9994 6.38911H0L0.000720558 3.92715C0.000720558 1.83857 1.14365 0.130803 2.58597 0.00716698L2.75367 0H17.247Z" fill="#C3CAD9"/>
</svg>
