<svg width="25" height="20" viewBox="0 0 25 20" fill="none" xmlns="http://www.w3.org/2000/svg">
<path fill-rule="evenodd" clip-rule="evenodd" d="M17.0158 12.3092C17.8512 10.5032 17.5157 8.29931 16.0093 6.81302C14.5028 5.32681 12.269 4.99574 10.4385 5.81984L11.9367 7.29796C12.8976 7.12188 13.9272 7.40051 14.6705 8.13381C15.4138 8.86716 15.6962 9.88305 15.5178 10.8311L17.0158 12.3092Z" fill="black"/>
<path fill-rule="evenodd" clip-rule="evenodd" d="M4.75443 5.05237C4.42758 5.31727 4.11771 5.58511 3.82621 5.84998C2.75602 6.82241 1.89286 7.79196 1.29732 8.51771C0.998955 8.8812 0.766259 9.18542 0.60682 9.40073C0.527063 9.50845 0.465531 9.594 0.423185 9.65377C0.402005 9.68366 0.38561 9.70707 0.374124 9.72363L0.360581 9.74318L0.356592 9.74904L0.355305 9.7509L0 10.2728L0.354484 10.7934L0.355305 10.7947L0.356592 10.7966L0.360581 10.8024L0.374124 10.822C0.38561 10.8385 0.402005 10.8619 0.423185 10.8918C0.465531 10.9516 0.527063 11.0371 0.60682 11.1449C0.766259 11.3602 0.998955 11.6644 1.29732 12.0279C1.89286 12.7536 2.75602 13.7232 3.82621 14.6956C5.93277 16.6098 8.99845 18.6784 12.5 18.6784C14.2284 18.6784 15.8507 18.1743 17.3038 17.4336L15.8867 16.0356C14.8084 16.5145 13.6682 16.8105 12.5 16.8105C9.72778 16.8105 7.11364 15.1433 5.10882 13.3216C4.12331 12.4261 3.32289 11.5278 2.76876 10.8526C2.58779 10.6321 2.43373 10.4361 2.30874 10.2728C2.43373 10.1095 2.58779 9.91354 2.76876 9.693C3.32289 9.01781 4.12331 8.11947 5.10882 7.22396C5.42475 6.93688 5.75582 6.65364 6.10025 6.38017L4.75443 5.05237ZM18.8999 14.1653C19.2443 13.8919 19.5753 13.6086 19.8912 13.3216C20.8767 12.4261 21.677 11.5278 22.2313 10.8526C22.4121 10.6321 22.5663 10.4361 22.6912 10.2728C22.5663 10.1095 22.4121 9.91354 22.2313 9.693C21.677 9.01781 20.8767 8.11947 19.8912 7.22396C17.8863 5.40226 15.2722 3.7351 12.5 3.7351C11.3318 3.7351 10.1917 4.03113 9.11345 4.51001L7.69634 3.11189C9.14942 2.37121 10.7717 1.86719 12.5 1.86719C16.0015 1.86719 19.0672 3.93585 21.1738 5.84998C22.244 6.82241 23.1071 7.79196 23.7027 8.51771C24.001 8.8812 24.2337 9.18542 24.3931 9.40073C24.4729 9.50845 24.5345 9.594 24.5768 9.65377C24.598 9.68366 24.6144 9.70707 24.6259 9.72363L24.6394 9.74318L24.6434 9.74904L24.6447 9.7509L25 10.2728L24.6452 10.7941L24.6434 10.7966L24.6394 10.8024L24.6259 10.822C24.6144 10.8385 24.598 10.8619 24.5768 10.8918C24.5345 10.9516 24.4729 11.0371 24.3931 11.1449C24.2337 11.3602 24.001 11.6644 23.7027 12.0279C23.1071 12.7536 22.244 13.7232 21.1738 14.6956C20.8824 14.9605 20.5725 15.2282 20.2457 15.4931L18.8999 14.1653Z" fill="black"/>
<path fill-rule="evenodd" clip-rule="evenodd" d="M21.0197 20L2.08691 1.32081L3.42566 0L22.3585 18.6791L21.0197 20Z" fill="black"/>
</svg>
