<svg width="25" height="20" viewBox="0 0 25 20" fill="none" xmlns="http://www.w3.org/2000/svg">
<path fill-rule="evenodd" clip-rule="evenodd" d="M12.4945 0C8.99129 0 5.92423 2.46105 3.81672 4.73825C2.74604 5.89514 1.8825 7.04859 1.28668 7.912C0.988192 8.34444 0.755391 8.70637 0.59588 8.96252C0.516087 9.09067 0.454528 9.19244 0.412162 9.26356C0.390973 9.29911 0.37457 9.32696 0.363079 9.34667L0.34953 9.36993L0.34554 9.37689L0 10.0196L0.344251 10.6209L0.34554 10.6231L0.34953 10.6301L0.363079 10.6533C0.37457 10.673 0.390973 10.7009 0.412162 10.7364C0.454528 10.8076 0.516087 10.9093 0.59588 11.0375C0.755391 11.2936 0.988192 11.6556 1.28668 12.088C1.8825 12.9514 2.74604 14.1049 3.81672 15.2618C5.92423 17.539 8.99129 20 12.4945 20C15.9976 20 19.0646 17.539 21.1721 15.2618C22.2428 14.1049 23.1064 12.9514 23.7021 12.088C24.0007 11.6556 24.2334 11.2936 24.393 11.0375C24.4727 10.9093 24.5343 10.8076 24.5766 10.7364C24.5978 10.7009 24.6142 10.673 24.6257 10.6533L24.6392 10.6301L24.6433 10.6231L24.645 10.6201L25 10L24.6445 9.37911L24.6433 9.37689L24.6392 9.36993L24.6257 9.34667C24.6142 9.32696 24.5978 9.29911 24.5766 9.26356C24.5343 9.19244 24.4727 9.09067 24.393 8.96252C24.2334 8.70637 24.0007 8.34444 23.7021 7.912C23.1064 7.04859 22.2428 5.89514 21.1721 4.73825C19.0646 2.46105 15.9976 0 12.4945 0ZM2.7588 10.6898C2.57774 10.4274 2.42361 10.1942 2.29856 10C2.42361 9.80578 2.57774 9.57259 2.7588 9.31022C3.31317 8.50696 4.11395 7.43822 5.0999 6.37286C7.10562 4.20561 9.72094 2.22222 12.4945 2.22222C15.2678 2.22222 17.8833 4.20561 19.8889 6.37286C20.8748 7.43822 21.6757 8.50696 22.23 9.31022C22.4111 9.57259 22.5652 9.80578 22.6903 10C22.5652 10.1942 22.4111 10.4274 22.23 10.6898C21.6757 11.493 20.8748 12.5618 19.8889 13.6271C17.8833 15.7944 15.2678 17.7778 12.4945 17.7778C9.72094 17.7778 7.10562 15.7944 5.0999 13.6271C4.11395 12.5618 3.31317 11.493 2.7588 10.6898ZM15.3355 10C15.3355 11.8409 14.0636 13.3333 12.4943 13.3333C10.9252 13.3333 9.65321 11.8409 9.65321 10C9.65321 8.15911 10.9252 6.66667 12.4943 6.66667C14.0636 6.66667 15.3355 8.15911 15.3355 10ZM17.2297 10C17.2297 13.0683 15.1096 15.5556 12.4943 15.5556C9.87915 15.5556 7.75908 13.0683 7.75908 10C7.75908 6.93175 9.87915 4.44444 12.4943 4.44444C15.1096 4.44444 17.2297 6.93175 17.2297 10Z" fill="#080341"/>
</svg>
