<svg width="22" height="22" viewBox="0 0 22 22" fill="none" xmlns="http://www.w3.org/2000/svg">
<path d="M18 6L16.7784 6.89748C16.4351 7.1497 16.0203 7.28571 15.5943 7.28571H12.7009C12.1941 7.28571 11.73 7.56989 11.4995 8.02137V8.02137C11.2086 8.59123 11.3581 9.28702 11.8573 9.68715L13.4103 10.9318C14.9056 12.1302 15.6815 14.012 15.4655 15.9161V15.9161C15.4054 16.4467 15.2882 16.9692 15.1162 17.4747L14.9375 18" stroke="#8F8F8F" stroke-width="1.6"/>
<path d="M3 9.83333L5.93807 9.37426C7.11168 9.19088 8.11691 10.2174 7.90899 11.3869L7.82251 11.8734C7.59948 13.1279 8.24646 14.3759 9.4002 14.9168V14.9168C10.3261 15.3508 10.8082 16.3857 10.5448 17.3738L10.1111 19" stroke="#8F8F8F" stroke-width="1.6"/>
<circle cx="11" cy="11" r="8.2" stroke="#8F8F8F" stroke-width="1.6"/>
</svg>
