<svg width="20" height="20" viewBox="0 0 20 20" fill="none" xmlns="http://www.w3.org/2000/svg">
<path fill-rule="evenodd" clip-rule="evenodd" d="M0 7.2973V12.7027C0 15.2509 7.01231e-08 16.5249 0.848953 17.3166C1.62022 18.0357 2.81856 18.1014 5.08054 18.1076C4.96101 17.3582 4.93604 16.4631 4.92975 15.4099C4.92708 14.9621 5.31422 14.5971 5.79446 14.5946C6.27468 14.5921 6.66617 14.9531 6.66884 15.4009C6.67589 16.583 6.70881 17.421 6.83409 18.0569C6.9548 18.6697 7.14864 19.0243 7.43089 19.2876C7.75177 19.5868 8.20224 19.7819 9.05306 19.8884C9.92882 19.9983 11.0895 20 12.7538 20H13.9132C15.5773 20 16.738 19.9983 17.6138 19.8884C18.4646 19.7819 18.9151 19.5868 19.2359 19.2876C19.5568 18.9883 19.766 18.5682 19.8804 17.775C19.9981 16.9584 20 15.8761 20 14.3243V5.67568C20 4.12388 19.9981 3.04159 19.8804 2.225C19.766 1.43172 19.5568 1.01164 19.2359 0.712445C18.9151 0.413245 18.4646 0.218167 17.6138 0.111511C16.738 0.00172213 15.5773 0 13.9132 0H12.7538C11.0895 0 9.92882 0.00172213 9.05306 0.111511C8.20224 0.218167 7.75177 0.413245 7.43089 0.712445C7.14864 0.975633 6.9548 1.33031 6.83409 1.94308C6.70881 2.57902 6.67589 3.41694 6.66884 4.59911C6.66617 5.0469 6.27468 5.40789 5.79446 5.40539C5.31422 5.4029 4.92708 5.03788 4.92975 4.59008C4.93604 3.53691 4.96101 2.64176 5.08054 1.8925C2.81856 1.89852 1.62022 1.96432 0.848953 2.6835C7.01231e-08 3.4751 0 4.74917 0 7.2973ZM2.86335 10.5733C2.52376 10.2567 2.52376 9.74333 2.86335 9.42667L5.18217 7.26451C5.52174 6.94787 6.07232 6.94787 6.41189 7.26451C6.75148 7.58116 6.75148 8.09456 6.41189 8.41122L5.57751 9.18922H13.9128C14.3931 9.18922 14.7825 9.55222 14.7825 10C14.7825 10.4478 14.3931 10.8108 13.9128 10.8108H5.57751L6.41189 11.5888C6.75148 11.9054 6.75148 12.4189 6.41189 12.7354C6.07232 13.0521 5.52174 13.0521 5.18217 12.7354L2.86335 10.5733Z" fill="#C3CAD9"/>
</svg>
