<svg width="19" height="20" viewBox="0 0 19 20" fill="none" xmlns="http://www.w3.org/2000/svg">
<path fill-rule="evenodd" clip-rule="evenodd" d="M16.6814 10.916C16.7187 10.6173 16.7467 10.3186 16.7467 10.0013C16.7467 9.68397 16.7187 9.3853 16.6814 9.08664L18.6507 7.54664C18.8281 7.40664 18.8747 7.15464 18.7627 6.9493L16.8961 3.71997C16.7841 3.51464 16.5321 3.43997 16.3267 3.51464L14.0027 4.44797C13.5174 4.07464 12.9947 3.76664 12.4254 3.5333L12.0707 1.05997C12.0427 0.835969 11.8467 0.667969 11.6134 0.667969H7.88006C7.64673 0.667969 7.45073 0.835969 7.42273 1.05997L7.06806 3.5333C6.49872 3.76664 5.97606 4.08397 5.49073 4.44797L3.16673 3.51464C2.95206 3.43064 2.70939 3.51464 2.59739 3.71997L0.730725 6.9493C0.609392 7.15464 0.665392 7.40664 0.842725 7.54664L2.81206 9.08664C2.77473 9.3853 2.74673 9.6933 2.74673 10.0013C2.74673 10.3093 2.77473 10.6173 2.81206 10.916L0.842725 12.456C0.665392 12.596 0.618725 12.848 0.730725 13.0533L2.59739 16.2826C2.70939 16.488 2.96139 16.5626 3.16673 16.488L5.49073 15.5546C5.97606 15.928 6.49872 16.236 7.06806 16.4693L7.42273 18.9426C7.45073 19.1666 7.64673 19.3346 7.88006 19.3346H11.6134C11.8467 19.3346 12.0427 19.1666 12.0707 18.9426L12.4254 16.4693C12.9947 16.236 13.5174 15.9186 14.0027 15.5546L16.3267 16.488C16.5414 16.572 16.7841 16.488 16.8961 16.2826L18.7627 13.0533C18.8747 12.848 18.8281 12.596 18.6507 12.456L16.6814 10.916ZM9.74673 13.268C7.94539 13.268 6.48006 11.8026 6.48006 10.0013C6.48006 8.19997 7.94539 6.73464 9.74673 6.73464C11.5481 6.73464 13.0134 8.19997 13.0134 10.0013C13.0134 11.8026 11.5481 13.268 9.74673 13.268Z" fill="#C3CAD9"/>
</svg>
